<?xml version="1.0" standalone="no"?>
<!DOCTYPE svg PUBLIC "-//W3C//DTD SVG 20010904//EN"
 "http://www.w3.org/TR/2001/REC-SVG-20010904/DTD/svg10.dtd">
<svg version="1.0" xmlns="http://www.w3.org/2000/svg"
 width="1024.000000pt" height="1024.000000pt" viewBox="0 0 1024.000000 1024.000000"
 preserveAspectRatio="xMidYMid meet">
<g transform="translate(0.000000,1024.000000) scale(0.100000,-0.100000)"
fill="#000000" stroke="none">
<path d="M3219 7710 c0 -5 0 -39 0 -75 0 -36 0 -76 0 -90 l1 -25 414 0 414 0
0 -2418 0 -2419 -397 -1 c-218 0 -405 -1 -416 -1 -19 -1 -20 -8 -19 -99 l1
-97 1305 -3 1305 -2 1 100 c0 96 -1 100 -21 101 -12 0 -203 1 -424 1 l-403 1
0 1097 0 1097 428 0 c373 0 635 7 737 17 17 2 64 7 105 10 41 4 82 9 90 11 8
2 35 7 60 10 84 11 275 56 370 86 247 80 419 179 574 333 117 115 154 161 219
266 127 205 185 406 191 660 5 237 -28 412 -117 600 -29 63 -96 175 -127 214
-240 301 -498 463 -889 561 -53 13 -114 26 -136 30 -23 3 -50 7 -60 9 -11 2
-49 7 -85 11 -36 4 -76 10 -90 13 -51 11 -3030 13 -3031 2z m2761 -205 c128
-18 223 -37 281 -56 180 -59 365 -257 434 -464 15 -44 29 -91 32 -104 2 -14 6
-27 8 -31 2 -4 7 -29 11 -56 3 -27 8 -52 10 -55 10 -18 19 -197 18 -379 -1
-258 -7 -324 -48 -525 -23 -109 -97 -278 -160 -366 -161 -222 -330 -320 -612
-354 -27 -3 -60 -8 -74 -10 -75 -13 -222 -18 -542 -19 l-358 -2 0 1219 0 1219
478 -5 c262 -3 497 -8 522 -12z"/>
</g>
</svg>
